# xmcd
#
# Track frame offsets:
#	150
#	14862
#	29095
#	43817
#	58787
#	73023
#	87871
#	102187
#	115924
#	130712
#	145802
#	160770
#	175424
#	189982
#	206310
#	221635
#	236120
#	251220
#	265898
#	281642
#	298652
#	313675
#	328005
#
# Disc length: 4581 seconds
#
# Revision: 0
# Processed by: cddbd v1.5.2PL0 Copyright (c) Steve Scherf et al.
# Submitted via: EasyCDDAExtractor 16.0.6.1
#
DISCID=6a11e317
DTITLE=Συλλογικός δίσκος - Ρεμπέτικα και λαϊκά 3
DYEAR=2009
DGENRE=Ποικίλη
TTITLE0=Άνευ ερμηνευτού - Το μινόρε του Τσιτσάνη [1946, ορχ., Βασίλη Τσιτσάνη]
TTITLE1=Ρούκουνας Κώστας ή Σαμιωτάκης - Η μπόμπα [1946, Κώστα Ρούκουνα]
TTITLE2=Παγιουμτζής Στράτος-Τσιτσάνης Βασίλης - Δροσούλα [1946, Βασίλη Τσιτσάν
TTITLE2=η]
TTITLE3=Χατζηχρήστος Απόστολος-Βαμβακάρης Μ.-Σταμούλης Γ. - Το μινόρε της αυγή
TTITLE3=ς [1947, Μίνου Μάτσα-Σ. Περιστέρη]
TTITLE4=Μητσάκης Γιώργος-Μανησαλής Γιώργος - Ο λουλάς [1946, Γιώργου Μητσάκη]
TTITLE5=Μοσχονάς Οδυσσέαςς-Περπινιάδης Στελλάκης - Απ' της Ζέας το λιμάνι [194
TTITLE5=6, Χαρ. Βασιλειάδη]
TTITLE6=Βαμβακάρης Μάρκος-Εσκενάζυ Ρόζα - Χρόνια στον Περαία [1946, Μάρκου Βαμ
TTITLE6=βακάρη]
TTITLE7=Χατζηχρήστος Απόστολος-Χατζηχρήστος Ευάγγελος - Μάρω [1947, Απόστ. Χατ
TTITLE7=ζηχρήστου]
TTITLE8=Μπέλλου Σωτηρία-Περπινιάδης Στελλάκης - Άνοιξε, άνοιξε [1949, Χαρ. Βασ
TTITLE8=ιλειάδη]
TTITLE9=Γεωργακοπούλου Ιωάννα - Ο Μητσάκης [1947, Γιώργου Μητσάκη]
TTITLE10=Χασκίλ Στέλλα-χορωδία - Μπιρ αλλάχ [1947, Χαρ. Βασιλειάδη]
TTITLE11=Παπαϊωάννου Γιάννης-Μπέλλου Σ.-Περπινιάδης Σ. - Ο μπουφετζής [1948, Γ
TTITLE11=Μπάτη-Γ. Παπαϊωάννου]
TTITLE12=Νίνου Μαρίκα-Κηρομύτης Στέλιος - Γιατί άλλαξες, γιατί [1950, Κώστα Μά
TTITLE12=νεση]
TTITLE13=Σπαγγαδώρος Ανδρέας-Χιώτης Μανώλης - Εσύ είσαι η αιτία που υποφέρω [1
TTITLE13=948, Μ. Χιώτη]
TTITLE14=Τσαουσάκης Πρόδρομος-Νίνου Μαρίκα - Ο τραυματίας [1949, Βασίλη Τσιτσά
TTITLE14=νη]
TTITLE15=Ντούο Χάρμα - Τζεμιλέ [1947, Μανώλη Χιώτη]
TTITLE16=Τζουανάκος Σταύρος - Ο διαβάτης [1949, Κ. Κοφινιώτη-Σ. Τζουανάκου]
TTITLE17=Μπέλλου Σωτηρία-Τσιτσάνης Βασίλης - Όταν πίνεις στην ταβέρνα [1947, Β
TTITLE17=ασίλη Τσιτσάνη]
TTITLE18=Μητσάκης Γιώργος-Γεωργακοπούλου Ιωάννα - Όσο βαριά είν' τα σίδερα [19
TTITLE18=50, Γ. Μητσάκη]
TTITLE19=Πολυμέρης Φώτης-Τσιτσάνης Βασίλης - Στέλλα, μωρ' Στέλλα [1947]
TTITLE20=Μπίνης Τάκης-Χασκίλ Στέλλα - Καρδιά παραπονιάρα [1950, Γ. Λελάκη-Απ. 
TTITLE20=Χατζηχρήστου]
TTITLE21=Γκόγκος Δημήτρης ή Μπαγιαντέρας-Γαλανάκης Δ. - Έλα να μπερμπαντέψεις 
TTITLE21=[1947, Δ. Γκόγκου Μπαγιαντέρα]
TTITLE22=Βαμβακάρης Μάρκος-Τσιτσάνης Βασίλης - Μάγκας βγήκε για σεργιάνι [1946
TTITLE22=, Απ. Καλδάρα]
EXTD=
EXTT0=
EXTT1=
EXTT2=
EXTT3=
EXTT4=
EXTT5=
EXTT6=
EXTT7=
EXTT8=
EXTT9=
EXTT10=
EXTT11=
EXTT12=
EXTT13=
EXTT14=
EXTT15=
EXTT16=
EXTT17=
EXTT18=
EXTT19=
EXTT20=
EXTT21=
EXTT22=
PLAYORDER=
